<svg width="1183" height="137" viewBox="0 0 1183 137" fill="none" xmlns="http://www.w3.org/2000/svg">
<path d="M1122.2 135.103V45.1524H1145.49L1146.34 74.0591L1142.26 68.1077C1143.62 63.46 1145.83 59.2657 1148.9 55.5248C1151.96 51.6706 1155.53 48.6666 1159.61 46.5127C1163.8 44.3589 1168.17 43.282 1172.7 43.282C1174.63 43.282 1176.5 43.452 1178.31 43.7921C1180.13 44.1322 1181.66 44.5289 1182.9 44.9824L1176.44 71.5085C1175.08 70.8284 1173.44 70.2616 1171.51 69.8081C1169.58 69.2413 1167.6 68.9579 1165.56 68.9579C1162.84 68.9579 1160.29 69.4681 1157.91 70.4883C1155.64 71.3952 1153.66 72.7555 1151.96 74.5692C1150.26 76.2696 1148.89 78.3101 1147.87 80.6907C1146.97 83.0712 1146.51 85.6785 1146.51 88.5125V135.103H1122.2Z" fill="var(--color-text)"/>
<path d="M1070.35 136.804C1060.6 136.804 1052.09 134.82 1044.84 130.852C1037.58 126.885 1031.92 121.443 1027.84 114.528C1023.75 107.614 1021.71 99.6784 1021.71 90.723C1021.71 83.808 1022.85 77.4599 1025.11 71.6786C1027.38 65.8972 1030.56 60.9094 1034.64 56.7151C1038.72 52.4074 1043.54 49.12 1049.09 46.8528C1054.76 44.4723 1060.88 43.282 1067.45 43.282C1073.58 43.282 1079.24 44.4156 1084.46 46.6828C1089.67 48.8366 1094.15 51.954 1097.89 56.0349C1101.75 60.0025 1104.69 64.7069 1106.73 70.1482C1108.77 75.5895 1109.68 81.5408 1109.45 88.0023L1109.28 95.4841H1037.02L1033.11 80.6906H1089.39L1086.67 83.7514V80.0105C1086.44 76.9498 1085.42 74.1725 1083.61 71.6786C1081.91 69.1846 1079.7 67.2575 1076.98 65.8972C1074.26 64.5369 1071.2 63.8568 1067.79 63.8568C1062.81 63.8568 1058.56 64.8203 1055.04 66.7474C1051.64 68.6745 1049.03 71.5085 1047.22 75.2494C1045.41 78.9903 1044.5 83.5246 1044.5 88.8525C1044.5 94.2938 1045.63 98.9982 1047.9 102.966C1050.28 106.933 1053.57 110.051 1057.76 112.318C1062.07 114.472 1067.11 115.549 1072.9 115.549C1076.86 115.549 1080.49 114.925 1083.78 113.678C1087.07 112.431 1090.58 110.278 1094.32 107.217L1105.88 123.371C1102.6 126.318 1098.97 128.812 1095 130.852C1091.03 132.779 1086.95 134.253 1082.76 135.273C1078.56 136.294 1074.43 136.804 1070.35 136.804Z" fill="var(--color-text)"/>
<path d="M975.351 135.103V22.3671H999.497V135.103H975.351ZM958.518 66.7473V45.1523H1017.86V66.7473H958.518Z" fill="var(--color-text)"/>
<path d="M918.688 136.804C910.299 136.804 902.818 135.443 896.243 132.723C889.781 129.889 884.567 126.034 880.599 121.16L895.563 108.237C899.077 111.978 902.988 114.699 907.295 116.399C911.603 117.986 915.911 118.779 920.218 118.779C921.919 118.779 923.449 118.609 924.809 118.269C926.283 117.816 927.53 117.249 928.55 116.569C929.571 115.775 930.307 114.869 930.761 113.848C931.328 112.715 931.611 111.524 931.611 110.277C931.611 107.784 930.591 105.8 928.55 104.326C927.417 103.759 925.66 103.079 923.279 102.286C920.898 101.379 917.838 100.415 914.097 99.395C908.316 97.9213 903.384 96.2209 899.303 94.2938C895.336 92.2533 892.162 89.9861 889.781 87.4922C887.741 85.1117 886.154 82.5611 885.02 79.8405C884 77.0065 883.49 73.8891 883.49 70.4883C883.49 66.4073 884.397 62.7232 886.21 59.4357C888.024 56.0349 890.518 53.1443 893.692 50.7637C896.98 48.3832 900.72 46.5694 904.915 45.3225C909.109 43.9621 913.53 43.282 918.178 43.282C922.826 43.282 927.36 43.8488 931.781 44.9824C936.202 46.116 940.283 47.7597 944.024 49.9135C947.878 51.954 951.222 54.3912 954.056 57.2252L941.133 71.5085C939.093 69.5814 936.769 67.8243 934.162 66.2373C931.668 64.6503 929.06 63.4033 926.34 62.4964C923.619 61.5896 921.182 61.1361 919.028 61.1361C917.101 61.1361 915.344 61.3062 913.757 61.6462C912.283 61.9863 911.036 62.4964 910.016 63.1766C908.996 63.8568 908.202 64.7636 907.635 65.8972C907.182 66.9175 906.955 68.0511 906.955 69.298C906.955 70.545 907.239 71.7352 907.805 72.8688C908.486 74.0024 909.392 74.966 910.526 75.7595C911.773 76.4397 913.587 77.2332 915.967 78.1401C918.461 79.0469 921.805 80.0672 926 81.2008C931.441 82.6744 936.032 84.3182 939.773 86.1319C943.627 87.9457 946.688 90.0428 948.955 92.4234C950.882 94.4638 952.299 96.7877 953.206 99.395C954.113 102.002 954.566 104.893 954.566 108.067C954.566 113.622 952.979 118.609 949.805 123.03C946.744 127.338 942.493 130.739 937.052 133.233C931.611 135.613 925.49 136.804 918.688 136.804Z" fill="var(--color-text)"/>
<path d="M827.916 136.804C818.734 136.804 810.515 134.82 803.26 130.852C796.118 126.771 790.45 121.217 786.256 114.188C782.175 107.16 780.135 99.1116 780.135 90.0428C780.135 80.974 782.175 72.9822 786.256 66.0673C790.45 59.039 796.118 53.4843 803.26 49.4034C810.515 45.3225 818.734 43.282 827.916 43.282C836.985 43.282 845.09 45.3225 852.231 49.4034C859.486 53.4843 865.154 59.039 869.235 66.0673C873.316 72.9822 875.357 80.974 875.357 90.0428C875.357 99.1116 873.316 107.16 869.235 114.188C865.154 121.217 859.486 126.771 852.231 130.852C845.09 134.82 836.985 136.804 827.916 136.804ZM827.916 115.719C832.337 115.719 836.304 114.642 839.819 112.488C843.333 110.221 846.053 107.16 847.98 103.306C850.021 99.3383 851.041 94.9173 851.041 90.0428C851.041 85.055 850.021 80.634 847.98 76.7797C846.053 72.8122 843.333 69.7514 839.819 67.5976C836.304 65.3304 832.337 64.1968 827.916 64.1968C823.381 64.1968 819.357 65.3304 815.843 67.5976C812.329 69.8648 809.552 72.9255 807.511 76.7797C805.471 80.634 804.507 85.055 804.62 90.0428C804.507 94.9173 805.471 99.3383 807.511 103.306C809.552 107.16 812.329 110.221 815.843 112.488C819.357 114.642 823.381 115.719 827.916 115.719Z" fill="var(--color-text)"/>
<path d="M725.583 136.804C716.401 136.804 708.182 134.82 700.927 130.852C693.785 126.771 688.117 121.217 683.923 114.188C679.842 107.16 677.802 99.1116 677.802 90.0428C677.802 80.974 679.842 72.9822 683.923 66.0673C688.117 59.039 693.785 53.4843 700.927 49.4034C708.182 45.3225 716.401 43.282 725.583 43.282C734.652 43.282 742.757 45.3225 749.898 49.4034C757.153 53.4843 762.821 59.039 766.902 66.0673C770.983 72.9822 773.024 80.974 773.024 90.0428C773.024 99.1116 770.983 107.16 766.902 114.188C762.821 121.217 757.153 126.771 749.898 130.852C742.757 134.82 734.652 136.804 725.583 136.804ZM725.583 115.719C730.004 115.719 733.971 114.642 737.486 112.488C741 110.221 743.72 107.16 745.647 103.306C747.688 99.3383 748.708 94.9173 748.708 90.0428C748.708 85.055 747.688 80.634 745.647 76.7797C743.72 72.8122 741 69.7514 737.486 67.5976C733.971 65.3304 730.004 64.1968 725.583 64.1968C721.048 64.1968 717.024 65.3304 713.51 67.5976C709.996 69.8648 707.219 72.9255 705.178 76.7797C703.138 80.634 702.174 85.055 702.287 90.0428C702.174 94.9173 703.138 99.3383 705.178 103.306C707.219 107.16 709.996 110.221 713.51 112.488C717.024 114.642 721.048 115.719 725.583 115.719Z" fill="var(--color-text)"/>
<path d="M574.354 135.103V16.075H626.046C633.982 16.075 640.67 17.2652 646.111 19.6458C651.666 21.913 655.86 25.2571 658.694 29.6781C661.528 34.0991 662.945 39.3703 662.945 45.4918C662.945 52.2933 661.245 57.9613 657.844 62.4957C654.443 67.0301 649.569 70.1475 643.22 71.8479L643.05 68.4471C648.265 69.694 652.856 71.7345 656.824 74.5685C660.791 77.4025 663.852 80.9166 666.006 85.1109C668.16 89.3052 669.236 94.0663 669.236 99.3942C669.236 105.289 668.273 110.503 666.346 115.038C664.419 119.459 661.585 123.143 657.844 126.09C654.103 129.038 649.682 131.305 644.581 132.892C639.593 134.366 633.982 135.103 627.747 135.103H574.354ZM598.84 112.997H626.727C630.354 112.997 633.415 112.487 635.909 111.467C638.516 110.333 640.5 108.633 641.86 106.366C643.22 104.099 643.901 101.435 643.901 98.374C643.901 95.4267 643.164 92.9328 641.69 90.8923C640.216 88.8518 638.119 87.3214 635.399 86.3012C632.791 85.1676 629.617 84.6008 625.876 84.6008H598.84V112.997ZM598.84 64.3661H622.986C626.046 64.3661 628.71 63.7993 630.978 62.6657C633.245 61.5321 634.945 60.0018 636.079 58.0747C637.326 56.1476 637.949 53.8804 637.949 51.2731C637.949 47.0788 636.589 43.8481 633.868 41.5809C631.148 39.3137 627.067 38.1801 621.625 38.1801H598.84V64.3661Z" fill="var(--color-text)"/>
<path d="M456.648 135.103L426.551 45.1526H451.717L470.081 106.367L466.34 105.857L486.575 58.0756H500.858L521.943 106.027L517.862 106.367L536.226 45.1526H561.391L530.785 135.103H513.271L492.016 83.9216L494.737 84.2617L473.992 135.103H456.648Z" fill="var(--color-text)"/>
<path d="M385.882 136.804C376.133 136.804 367.631 134.82 360.376 130.852C353.121 126.885 347.453 121.443 343.372 114.528C339.291 107.614 337.25 99.6784 337.25 90.723C337.25 83.808 338.384 77.4599 340.651 71.6786C342.918 65.8972 346.093 60.9094 350.173 56.7151C354.254 52.4074 359.072 49.12 364.627 46.8528C370.295 44.4723 376.416 43.282 382.991 43.282C389.112 43.282 394.78 44.4156 399.995 46.6828C405.21 48.8366 409.687 51.954 413.428 56.0349C417.282 60.0025 420.23 64.7069 422.27 70.1482C424.311 75.5895 425.217 81.5408 424.991 88.0023L424.821 95.4841H352.554L348.643 80.6906H404.926L402.205 83.7514V80.0105C401.979 76.9498 400.959 74.1725 399.145 71.6786C397.444 69.1846 395.234 67.2575 392.513 65.8972C389.793 64.5369 386.732 63.8568 383.331 63.8568C378.343 63.8568 374.092 64.8203 370.578 66.7474C367.177 68.6745 364.57 71.5085 362.756 75.2494C360.943 78.9903 360.036 83.5246 360.036 88.8525C360.036 94.2938 361.169 98.9982 363.437 102.966C365.817 106.933 369.104 110.051 373.299 112.318C377.606 114.472 382.651 115.549 388.432 115.549C392.4 115.549 396.027 114.925 399.315 113.678C402.602 112.431 406.116 110.278 409.857 107.217L421.42 123.371C418.132 126.318 414.505 128.812 410.537 130.852C406.57 132.779 402.489 134.253 398.295 135.273C394.1 136.294 389.963 136.804 385.882 136.804Z" fill="var(--color-text)"/>
<path d="M298.369 135.103V45.1524H322.515V135.103H298.369ZM310.272 26.6181C305.624 26.6181 301.997 25.4845 299.389 23.2173C296.782 20.9501 295.479 17.7194 295.479 13.525C295.479 9.67082 296.782 6.55343 299.389 4.17288C302.11 1.67896 305.738 0.432007 310.272 0.432007C314.92 0.432007 318.547 1.62228 321.154 4.00284C323.762 6.27003 325.065 9.4441 325.065 13.525C325.065 17.4926 323.705 20.6667 320.984 23.0473C318.377 25.4278 314.806 26.6181 310.272 26.6181Z" fill="var(--color-text)"/>
<path d="M228.53 135.103L190.782 45.1526H217.308L241.283 112.318L235.672 113.338L260.838 45.1526H286.684L247.065 135.103H228.53Z" fill="var(--color-text)"/>
<path d="M150.116 136.804C140.367 136.804 131.865 134.82 124.61 130.852C117.355 126.885 111.687 121.443 107.606 114.528C103.525 107.614 101.485 99.6784 101.485 90.723C101.485 83.808 102.618 77.4599 104.886 71.6786C107.153 65.8972 110.327 60.9094 114.408 56.7151C118.489 52.4074 123.307 49.12 128.861 46.8528C134.529 44.4723 140.651 43.282 147.225 43.282C153.347 43.282 159.015 44.4156 164.229 46.6828C169.444 48.8366 173.922 51.954 177.662 56.0349C181.517 60.0025 184.464 64.7069 186.505 70.1482C188.545 75.5895 189.452 81.5408 189.225 88.0023L189.055 95.4841H116.788L112.878 80.6906H169.161L166.44 83.7514V80.0105C166.213 76.9498 165.193 74.1725 163.379 71.6786C161.679 69.1846 159.468 67.2575 156.748 65.8972C154.027 64.5369 150.966 63.8568 147.566 63.8568C142.578 63.8568 138.327 64.8203 134.813 66.7474C131.412 68.6745 128.805 71.5085 126.991 75.2494C125.177 78.9903 124.27 83.5246 124.27 88.8525C124.27 94.2938 125.404 98.9982 127.671 102.966C130.051 106.933 133.339 110.051 137.533 112.318C141.841 114.472 146.885 115.549 152.667 115.549C156.634 115.549 160.262 114.925 163.549 113.678C166.837 112.431 170.351 110.278 174.092 107.217L185.654 123.371C182.367 126.318 178.739 128.812 174.772 130.852C170.804 132.779 166.723 134.253 162.529 135.273C158.335 136.294 154.197 136.804 150.116 136.804Z" fill="var(--color-text)"/>
<path d="M0.199707 135.103V16.075H52.9119C60.2803 16.075 66.9685 17.7753 72.9766 21.1761C78.9846 24.4636 83.689 28.9413 87.0898 34.6093C90.604 40.2772 92.361 46.7387 92.361 53.9937C92.361 61.1354 90.604 67.6536 87.0898 73.5483C83.689 79.3296 78.9846 83.9207 72.9766 87.3215C66.9685 90.7223 60.2803 92.4226 52.9119 92.4226H24.8554V135.103H0.199707ZM67.7053 135.103L37.4383 81.3701L63.6244 77.1191L97.2922 135.273L67.7053 135.103ZM24.8554 71.6778H51.7216C54.7823 71.6778 57.4463 70.9977 59.7135 69.6374C62.094 68.1637 63.9078 66.1799 65.1547 63.686C66.4017 61.0787 67.0252 58.188 67.0252 55.014C67.0252 51.6132 66.2883 48.6658 64.8147 46.1719C63.341 43.678 61.1872 41.7509 58.3532 40.3906C55.5192 38.9169 52.2318 38.1801 48.4909 38.1801H24.8554V71.6778Z" fill="var(--color-text)"/>
</svg>
